<?xml version="1.0" standalone="no"?><!DOCTYPE svg PUBLIC "-//W3C//DTD SVG 1.1//EN" "http://www.w3.org/Graphics/SVG/1.1/DTD/svg11.dtd"><svg t="1685249006526" class="icon" viewBox="0 0 1024 1024" version="1.1" xmlns="http://www.w3.org/2000/svg" p-id="7093" xmlns:xlink="http://www.w3.org/1999/xlink" width="200" height="200"><path d="M262.997333 607.427048h50.785524v30.305523H262.997333v-30.305523z m137.849905-3.657143h53.223619v50.931809h-53.223619v-50.907428z m-137.849905-47.250286h50.785524v30.305524H262.997333v-30.305524z m398.848-241.956571h105.228191v19.407238h-105.228191v-19.407238z m0 38.790095h105.228191v19.407238h-105.228191v-19.407238zM24.380952 0v1024l477.622858-124.099048L999.619048 1024V0H24.380952z m189.001143 181.248h35.108572V157.013333h24.137143v24.234667h38.716952V157.013333h24.185905v24.234667h35.08419v23.015619h-35.08419v26.672762h-24.185905V204.263619h-38.692572v16.993524H248.441905v-16.993524H213.382095v-23.015619zM249.660952 227.303619l21.772191 7.265524-6.070857 15.774476h93.135238c0 88.892952-2.82819 141.604571-8.460191 158.183619-5.656381 16.554667-17.359238 24.84419-35.08419 24.844191-8.045714 0-17.724952-0.804571-29.013333-2.438096l-4.827429-23.015619c12.068571 1.609143 22.552381 2.438095 31.451429 2.438096 7.241143 0 12.092952-6.095238 14.506666-18.188191 2.438095-12.117333 4.412952-52.126476 6.046476-120.003048H254.512762a94.939429 94.939429 0 0 1-13.312 23.015619h68.949333v82.40762H258.145524v20.626285h-22.966857v-93.330285a75.873524 75.873524 0 0 1-13.336381 14.531047l-12.092953-20.601905c18.529524-22.625524 31.841524-46.470095 39.911619-71.509333zM211.017143 688.64h27.794286v-132.144762h-24.161524v-21.796571h24.185905v-36.376381h24.161523v36.376381h50.785524v-36.376381h24.185905v36.376381h24.185905v21.820952h-24.185905v132.120381h22.991238v21.820952h-149.942857v-21.820952z m21.747809 89.697524l-18.139428-20.601905c18.529524-12.141714 33.450667-25.86819 44.739047-41.203809l20.553143 13.312c-13.702095 20.187429-29.42781 36.376381-47.152762 48.493714z m90.697143-12.117334a182.613333 182.613333 0 0 0-25.404952-37.571047l19.358476-12.117333c10.48381 12.117333 18.944 25.039238 25.404952 38.765714l-19.358476 10.922666z m154.819048-24.234666c0 11.312762-2.438095 19.797333-7.265524 25.453714-4.827429 5.656381-12.092952 8.484571-21.77219 8.484572a230.887619 230.887619 0 0 1-29.013334-2.413715l-6.070857-25.453714c12.897524 2.413714 22.991238 3.632762 30.232381 3.632762 6.436571 0 9.679238-5.656381 9.679238-16.993524v-58.172952h-55.637333c-4.022857 37.180952-14.116571 70.704762-30.232381 100.595809l-21.74781-15.750095c19.334095-33.962667 29.013333-71.533714 29.013334-112.737524v-140.580571h102.814476v233.935238z m-6.046476-304.981334a288.329143 288.329143 0 0 1-39.911619-54.54019 178.785524 178.785524 0 0 1-49.590858 54.54019l-15.725714-20.601904c20.967619-15.335619 37.888-35.547429 50.809905-60.586667-10.48381-21.820952-19.772952-46.86019-27.818667-75.166476l-9.679238 18.18819-19.358476-14.555428c19.358476-37.156571 33.450667-79.579429 42.325333-127.268572l21.772191 7.289905c-3.242667 15.335619-6.875429 29.891048-10.898286 43.641905h74.99581v22.991238h-16.944762c-4.047238 51.712-13.312 93.744762-27.794286 126.098286a259.486476 259.486476 0 0 0 45.958095 58.172952l-18.139428 21.796571z m143.652571-181.833142h84.650667v-19.382858h-61.68381v-20.601904h61.68381V195.779048h-73.776762v-20.601905h73.776762V157.013333h24.185905v18.188191h81.017904v20.601905h-81.017904v19.407238h71.338666v20.601904h-71.338666v19.382858h89.478095v20.601904h-198.314667v-20.601904z m45.933714 136.947809v43.641905h-24.185904v-140.604952h153.6v111.518476c0 9.703619-2.852571 16.993524-8.484572 21.820952-5.632 4.87619-13.702095 7.289905-24.161524 7.289905-7.265524 0-15.36-0.828952-24.185904-2.438095l-6.070858-23.015619c12.921905 1.609143 22.576762 2.438095 29.013334 2.438095 6.485333 0 9.703619-4.071619 9.679238-12.141714v-8.508953h-105.20381zM580.803048 157.013333c12.897524 16.164571 23.381333 33.158095 31.451428 50.907429l-22.966857 13.336381a207.676952 207.676952 0 0 0-30.232381-50.907429l21.74781-13.336381z m-44.739048 89.721905h62.902857v133.315048l15.701333-21.820953 14.531048 13.336381a217.185524 217.185524 0 0 1-35.08419 48.493715l-18.139429-15.774477v-135.753142h-39.911619v-21.820953z m83.456 262.534095c-15.311238 29.891048-37.912381 55.759238-67.730286 77.55581l-14.506666-19.382857c28.208762-21.820952 48.761905-44.860952 61.683809-69.095619l20.553143 10.922666z m-21.77219 118.784v150.308572h-22.966858v-126.049524c-9.679238 9.679238-18.16381 17.359238-25.404952 23.015619l-14.531048-19.407238c32.256-25.84381 57.246476-55.344762 74.99581-88.478476l20.553143 10.898285c-8.070095 16.188952-18.944 32.743619-32.670476 49.712762z m33.840761-36.352h81.042286v-36.376381H647.314286v-21.820952h65.340952V497.127619h24.161524v36.352H802.133333v21.820952h-65.340952v36.376381h76.214857v23.015619h-181.394286v-23.015619z m49.590858 146.651429a161.109333 161.109333 0 0 0-22.966858-43.641905l21.74781-9.703619c9.679238 12.921905 17.724952 27.062857 24.185905 42.422857l-22.966857 10.922667z m133.071238-65.462857h-33.889524v72.728381c0 12.141714-2.608762 20.406857-7.850667 24.868571-5.241905 4.412952-15.11619 6.656-29.622857 6.656-11.312762 0-22.601143-1.219048-33.889524-3.632762l-3.608381-25.453714a155.062857 155.062857 0 0 0 37.497905 4.827429c8.850286 0 13.287619-4.022857 13.287619-12.117334v-67.876571h-122.148571v-23.015619h122.148571V623.177143h24.185905v26.648381h33.889524v23.04zM258.121143 315.782095h27.843047v41.20381H258.145524v-41.20381z m4.87619 342.552381h50.785524v30.305524H262.997333v-30.305524z m137.849905-127.268571h53.223619v50.883047h-53.223619v-50.907428z m7.241143-300.129524a93.915429 93.915429 0 0 0-4.827429 13.336381c7.265524 33.158095 16.14019 61.025524 26.624 83.626667 8.874667-26.648381 14.896762-58.977524 18.115048-96.963048h-39.911619z" fill="#0077FF" p-id="7094"></path></svg>